<svg id="b9bf6650-716f-405e-b16b-128ee0039b2f" data-name="Layer 1" xmlns="http://www.w3.org/2000/svg" width="1036" height="569.97133" viewBox="0 0 1036 569.97133">
<title>Leet</title>
<path d="M269.23657,245.89659a13.70673,13.70673,0,1,1,13.70672-13.70673A13.72244,13.72244,0,0,1,269.23657,245.89659Zm0-25.129a11.42227,11.42227,0,1,0,11.42227,11.42227A11.435,11.435,0,0,0,269.23657,220.76759Z" transform="translate(-82 -165.01433)" fill="#3f3d56"/>
<path d="M878.989,601.46031H856.4401V578.91144H878.989Zm-20.81434-1.73453h19.07982V580.646H858.17463Z" transform="translate(-82 -165.01433)" fill="#3f3d56"/>
<path d="M341.73544,580.99169l-15.38019-16.48943,16.48943-15.3802,15.38019,16.48944Zm-12.92868-16.40411,13.014,13.9526,13.95259-13.014-13.014-13.9526Z" transform="translate(-82 -165.01433)" fill="#3f3d56"/>
<path d="M82,165.01433V734.98567H1118V165.01433ZM1115.71555,732.70121H84.28445V167.29879h1031.4311Z" transform="translate(-82 -165.01433)" fill="#3f3d56"/>
<path d="M856.89787,734.41455q-37.04832-5.79987-71.24294-9.86652l8.77843-17.55692c-3.047-1.01568-16.25092,9.14115-16.25092,9.14115L789.355,665.34811c-15.23525,2.03136-22.345,53.8312-22.345,53.8312L749.74331,701.9127l8.49959,19.549c-69.7584-7.32985-129.95337-9.61731-180.55371-9.09267l7.51347-15.02689c-3.047-1.01568-16.25092,9.14115-16.25092,9.14115l11.17251-50.78415c-15.23525,2.03137-22.345,53.8312-22.345,53.8312l-17.26661-17.26661,9.00241,20.70557a1013.49859,1013.49859,0,0,0-103.6226,8.34474c7.49729-23.35644,33.67921-45.80908,33.67921-45.80908-20.1314,6.26309-30.6047,16.46666-36.02556,25.9249a407.85873,407.85873,0,0,1,21.806-141.20492s-40.62732,91.41147-34.53322,152.35245l.77323,10.82523c-35.34514,5.51391-53.08091,11.01195-53.08091,11.01195Z" transform="translate(-82 -165.01433)" fill="#3f3d56"/>
<circle cx="524.42503" cy="287.85888" r="158.76957" fill="#6c63ff" opacity="0.3"/>
</svg>